<svg xmlns="http://www.w3.org/2000/svg" xmlns:xlink="http://www.w3.org/1999/xlink" width="500" zoomAndPan="magnify" viewBox="0 0 375 149.999998" height="200" preserveAspectRatio="xMidYMid meet" version="1.0"><defs><g/><clipPath id="ea2ecfbb2f"><path d="M 292 44 L 346 44 L 346 112.601562 L 292 112.601562 Z M 292 44 " clip-rule="nonzero"/></clipPath><clipPath id="d313447186"><path d="M 283.304688 28 L 339 28 L 339 85 L 283.304688 85 Z M 283.304688 28 " clip-rule="nonzero"/></clipPath><clipPath id="1e592f441a"><path d="M 327 8.757812 L 348 8.757812 L 348 33 L 327 33 Z M 327 8.757812 " clip-rule="nonzero"/></clipPath><clipPath id="0c364cce2c"><rect x="0" width="349" y="0" height="138"/></clipPath></defs><g transform="matrix(1, 0, 0, 1, 18, 11)"><g clip-path="url(#0c364cce2c)"><g fill="#2c3892" fill-opacity="1"><g transform="translate(0.831614, 98.624492)"><g><path d="M 8.46875 -87.828125 C 10.738281 -90.097656 13.445312 -91.234375 16.59375 -91.234375 C 19.75 -91.234375 22.460938 -90.097656 24.734375 -87.828125 C 27.003906 -85.554688 28.140625 -82.84375 28.140625 -79.6875 C 28.140625 -76.539062 27.003906 -73.832031 24.734375 -71.5625 C 22.460938 -69.289062 19.75 -68.15625 16.59375 -68.15625 C 13.445312 -68.15625 10.738281 -69.289062 8.46875 -71.5625 C 6.195312 -73.832031 5.0625 -76.539062 5.0625 -79.6875 C 5.0625 -82.84375 6.195312 -85.554688 8.46875 -87.828125 Z M 6.59375 -56.390625 L 6.59375 0 L 26.046875 0 L 26.046875 -56.390625 Z M 6.59375 -56.390625 "/></g></g></g><g fill="#2c3892" fill-opacity="1"><g transform="translate(25.671965, 98.624492)"><g><path d="M 9.890625 -56.390625 L 9.890625 -77.390625 L 29.34375 -77.390625 L 29.34375 -56.390625 L 41.21875 -56.390625 L 41.21875 -41.546875 L 29.34375 -41.546875 L 29.34375 -23.640625 C 29.34375 -18.429688 30.8125 -15.828125 33.75 -15.828125 C 34.476562 -15.828125 35.242188 -15.972656 36.046875 -16.265625 C 36.859375 -16.554688 37.484375 -16.847656 37.921875 -17.140625 L 38.578125 -17.59375 L 43.421875 -1.875 C 39.242188 0.476562 34.476562 1.65625 29.125 1.65625 C 25.46875 1.65625 22.316406 1.015625 19.671875 -0.265625 C 17.035156 -1.554688 15.039062 -3.28125 13.6875 -5.4375 C 12.332031 -7.601562 11.359375 -9.875 10.765625 -12.25 C 10.179688 -14.632812 9.890625 -17.179688 9.890625 -19.890625 L 9.890625 -41.546875 L 1.765625 -41.546875 L 1.765625 -56.390625 Z M 9.890625 -56.390625 "/></g></g></g><g fill="#2c3892" fill-opacity="1"><g transform="translate(60.734484, 98.624492)"><g><path d="M 63.640625 -25.5 L 22.75 -25.5 C 22.75 -21.539062 24.03125 -18.609375 26.59375 -16.703125 C 29.164062 -14.796875 31.953125 -13.84375 34.953125 -13.84375 C 38.109375 -13.84375 40.597656 -14.265625 42.421875 -15.109375 C 44.253906 -15.953125 46.347656 -17.617188 48.703125 -20.109375 L 62.765625 -13.078125 C 56.898438 -3.253906 47.15625 1.65625 33.53125 1.65625 C 25.03125 1.65625 17.738281 -1.253906 11.65625 -7.078125 C 5.570312 -12.910156 2.53125 -19.929688 2.53125 -28.140625 C 2.53125 -36.347656 5.570312 -43.378906 11.65625 -49.234375 C 17.738281 -55.097656 25.03125 -58.03125 33.53125 -58.03125 C 42.46875 -58.03125 49.738281 -55.445312 55.34375 -50.28125 C 60.945312 -45.125 63.75 -37.742188 63.75 -28.140625 C 63.75 -26.816406 63.710938 -25.9375 63.640625 -25.5 Z M 23.296875 -36.28125 L 44.734375 -36.28125 C 44.296875 -39.207031 43.140625 -41.457031 41.265625 -43.03125 C 39.398438 -44.601562 37.003906 -45.390625 34.078125 -45.390625 C 30.847656 -45.390625 28.28125 -44.546875 26.375 -42.859375 C 24.46875 -41.179688 23.441406 -38.988281 23.296875 -36.28125 Z M 23.296875 -36.28125 "/></g></g></g><g fill="#2c3892" fill-opacity="1"><g transform="translate(118.659503, 98.624492)"><g><path d="M 6.59375 0 L 6.59375 -56.390625 L 26.046875 -56.390625 L 26.046875 -48.25 L 26.265625 -48.25 C 26.410156 -48.550781 26.648438 -48.921875 26.984375 -49.359375 C 27.316406 -49.796875 28.03125 -50.5625 29.125 -51.65625 C 30.226562 -52.757812 31.398438 -53.75 32.640625 -54.625 C 33.890625 -55.507812 35.503906 -56.296875 37.484375 -56.984375 C 39.460938 -57.679688 41.476562 -58.03125 43.53125 -58.03125 C 45.65625 -58.03125 47.742188 -57.738281 49.796875 -57.15625 C 51.847656 -56.570312 53.347656 -55.988281 54.296875 -55.40625 L 55.84375 -54.515625 L 47.703125 -38.03125 C 45.285156 -40.082031 41.914062 -41.109375 37.59375 -41.109375 C 35.25 -41.109375 33.234375 -40.59375 31.546875 -39.5625 C 29.859375 -38.539062 28.664062 -37.296875 27.96875 -35.828125 C 27.28125 -34.367188 26.785156 -33.125 26.484375 -32.09375 C 26.191406 -31.070312 26.046875 -30.265625 26.046875 -29.671875 L 26.046875 0 Z M 6.59375 0 "/></g></g></g><g fill="#2c3892" fill-opacity="1"><g transform="translate(165.04336, 98.624492)"><g><path d="M 6.59375 0 L 6.59375 -56.390625 L 26.046875 -56.390625 L 26.046875 -48.25 L 26.265625 -48.25 C 26.410156 -48.550781 26.648438 -48.921875 26.984375 -49.359375 C 27.316406 -49.796875 28.03125 -50.5625 29.125 -51.65625 C 30.226562 -52.757812 31.398438 -53.75 32.640625 -54.625 C 33.890625 -55.507812 35.503906 -56.296875 37.484375 -56.984375 C 39.460938 -57.679688 41.476562 -58.03125 43.53125 -58.03125 C 45.65625 -58.03125 47.742188 -57.738281 49.796875 -57.15625 C 51.847656 -56.570312 53.347656 -55.988281 54.296875 -55.40625 L 55.84375 -54.515625 L 47.703125 -38.03125 C 45.285156 -40.082031 41.914062 -41.109375 37.59375 -41.109375 C 35.25 -41.109375 33.234375 -40.59375 31.546875 -39.5625 C 29.859375 -38.539062 28.664062 -37.296875 27.96875 -35.828125 C 27.28125 -34.367188 26.785156 -33.125 26.484375 -32.09375 C 26.191406 -31.070312 26.046875 -30.265625 26.046875 -29.671875 L 26.046875 0 Z M 6.59375 0 "/></g></g></g><g fill="#2c3892" fill-opacity="1"><g transform="translate(211.427216, 98.624492)"><g><path d="M 10.4375 -6.96875 C 5.164062 -12.726562 2.53125 -19.785156 2.53125 -28.140625 C 2.53125 -36.492188 5.164062 -43.5625 10.4375 -49.34375 C 15.71875 -55.132812 22.425781 -58.03125 30.5625 -58.03125 C 38.03125 -58.03125 44.1875 -55.6875 49.03125 -51 L 49.03125 -56.390625 L 68.484375 -56.390625 L 68.484375 0 L 49.25 0 L 49.25 -6.375 L 49.03125 -6.375 C 44.1875 -1.019531 38.03125 1.65625 30.5625 1.65625 C 22.425781 1.65625 15.71875 -1.21875 10.4375 -6.96875 Z M 26.984375 -37.703125 C 24.453125 -35.210938 23.1875 -32.023438 23.1875 -28.140625 C 23.1875 -24.253906 24.394531 -21.082031 26.8125 -18.625 C 29.238281 -16.175781 32.429688 -14.953125 36.390625 -14.953125 C 40.191406 -14.953125 43.320312 -16.195312 45.78125 -18.6875 C 48.238281 -21.175781 49.46875 -24.328125 49.46875 -28.140625 C 49.46875 -32.023438 48.203125 -35.210938 45.671875 -37.703125 C 43.140625 -40.191406 40.046875 -41.4375 36.390625 -41.4375 C 32.648438 -41.4375 29.515625 -40.191406 26.984375 -37.703125 Z M 26.984375 -37.703125 "/></g></g></g><g clip-path="url(#ea2ecfbb2f)"><path fill="#f68712" d="M 333.746094 65.835938 C 333.054688 67.367188 332.3125 68.816406 331.519531 70.1875 C 330.746094 74.113281 328.722656 78.292969 325.066406 82.492188 C 316.832031 91.945312 301.910156 92.269531 292.332031 88.253906 C 300.613281 101.601562 314.589844 112.539062 314.589844 112.539062 C 314.589844 112.539062 345.863281 88.070312 345.863281 63.050781 C 345.863281 55.882812 343.453125 49.285156 339.398438 44.011719 C 338.449219 52.320312 336.550781 59.652344 333.746094 65.835938 Z M 333.746094 65.835938 " fill-opacity="1" fill-rule="nonzero"/></g><g clip-path="url(#d313447186)"><path fill="#f68712" d="M 307.332031 84.09375 C 312.25 83.960938 316.847656 82.34375 320.90625 79.332031 C 323.082031 77.71875 325.101562 75.710938 326.9375 73.316406 C 328.769531 70.917969 330.417969 68.132812 331.84375 64.96875 C 334.6875 58.695312 336.664062 50.9375 337.527344 41.800781 C 337.917969 37.640625 338.078125 33.199219 337.984375 28.476562 C 337.03125 32.109375 335.980469 35.730469 334.832031 39.21875 C 332.886719 45.09375 330.644531 50.605469 328.070312 55.222656 C 324.082031 62.378906 319.292969 67.390625 313.570312 68.308594 C 299.140625 70.621094 298.25 49.144531 313.667969 48.285156 C 318.382812 48.023438 323.132812 50.042969 326.601562 53.550781 C 328.796875 49.492188 330.894531 44.453125 332.847656 38.5625 C 332.925781 38.320312 333.003906 38.082031 333.082031 37.835938 C 327.902344 34.03125 321.511719 31.785156 314.589844 31.785156 C 297.320312 31.785156 283.320312 45.785156 283.320312 63.050781 C 283.320312 63.277344 283.320312 64.4375 283.386719 65.046875 C 284.832031 78.195312 295.09375 84.441406 307.332031 84.09375 Z M 307.332031 84.09375 " fill-opacity="1" fill-rule="nonzero"/></g><g clip-path="url(#1e592f441a)"><path fill="#f68712" d="M 338.277344 19.828125 L 340.75 31.957031 L 347.898438 32.371094 L 338.914062 8.757812 L 327.273438 31.179688 L 334.421875 31.59375 Z M 338.277344 19.828125 " fill-opacity="1" fill-rule="nonzero"/></g></g></g></svg>