<svg xmlns="http://www.w3.org/2000/svg" xmlns:xlink="http://www.w3.org/1999/xlink" width="500" zoomAndPan="magnify" viewBox="0 0 375 374.999991" height="500" preserveAspectRatio="xMidYMid meet" version="1.0"><defs><g/><clipPath id="6fc7bd89f9"><path d="M 115 136 L 281 136 L 281 347.074219 L 115 347.074219 Z M 115 136 " clip-rule="nonzero"/></clipPath><clipPath id="e9690e0b60"><path d="M 87.945312 88 L 257 88 L 257 260 L 87.945312 260 Z M 87.945312 88 " clip-rule="nonzero"/></clipPath><clipPath id="eacfc2eca7"><path d="M 223 27.574219 L 286.695312 27.574219 L 286.695312 101 L 223 101 Z M 223 27.574219 " clip-rule="nonzero"/></clipPath><clipPath id="2632ae4337"><path d="M 1 0 L 1.640625 0 L 1.640625 1 L 1 1 Z M 1 0 " clip-rule="nonzero"/></clipPath><clipPath id="d03ae411ae"><rect x="0" width="2" y="0" height="2"/></clipPath></defs><g clip-path="url(#6fc7bd89f9)"><path fill="#f68712" d="M 243.390625 203.46875 C 241.261719 208.1875 238.972656 212.660156 236.53125 216.882812 C 234.136719 228.976562 227.90625 241.863281 216.636719 254.800781 C 191.265625 283.9375 145.277344 284.941406 115.753906 272.558594 C 141.277344 313.699219 184.355469 347.410156 184.355469 347.410156 C 184.355469 347.410156 280.726562 271.996094 280.726562 194.890625 C 280.726562 172.804688 273.300781 152.460938 260.808594 136.21875 C 257.878906 161.820312 252.03125 184.417969 243.390625 203.46875 Z M 243.390625 203.46875 " fill-opacity="1" fill-rule="nonzero"/></g><g clip-path="url(#e9690e0b60)"><path fill="#f68712" d="M 161.976562 259.742188 C 177.136719 259.332031 191.308594 254.34375 203.824219 245.058594 C 210.523438 240.097656 216.75 233.910156 222.402344 226.523438 C 228.050781 219.132812 233.125 210.550781 237.523438 200.804688 C 246.292969 181.472656 252.386719 157.558594 255.042969 129.394531 C 256.238281 116.585938 256.738281 102.886719 256.445312 88.332031 C 253.507812 99.535156 250.277344 110.695312 246.734375 121.441406 C 240.742188 139.554688 233.832031 156.542969 225.894531 170.769531 C 213.609375 192.820312 198.851562 208.261719 181.214844 211.097656 C 136.738281 218.226562 133.992188 152.039062 181.507812 149.378906 C 196.042969 148.574219 210.675781 154.800781 221.371094 165.613281 C 228.136719 153.101562 234.605469 137.574219 240.617188 119.417969 C 240.859375 118.679688 241.105469 117.933594 241.347656 117.183594 C 225.382812 105.457031 205.679688 98.535156 184.355469 98.535156 C 131.128906 98.535156 87.984375 141.675781 87.984375 194.890625 C 87.984375 195.582031 87.984375 199.160156 88.191406 201.042969 C 92.636719 241.558594 124.265625 260.808594 161.976562 259.742188 Z M 161.976562 259.742188 " fill-opacity="1" fill-rule="nonzero"/></g><g clip-path="url(#eacfc2eca7)"><path fill="#f68712" d="M 257.347656 61.6875 L 264.964844 99.066406 L 287 100.339844 L 259.316406 27.574219 L 223.433594 96.664062 L 245.46875 97.9375 Z M 257.347656 61.6875 " fill-opacity="1" fill-rule="nonzero"/></g><g transform="matrix(1, 0, 0, 1, 7, 0)"><g clip-path="url(#d03ae411ae)"><g clip-path="url(#2632ae4337)"><g fill="#000000" fill-opacity="1"><g transform="translate(1.022143, 0.899998)"><g><path d="M 0.046875 0 L 0.046875 -0.0625 L 0.25 -0.0625 L 0.25 -0.609375 L 0.234375 -0.625 C 0.203125 -0.601562 0.171875 -0.585938 0.140625 -0.578125 C 0.117188 -0.566406 0.09375 -0.5625 0.0625 -0.5625 L 0.0625 -0.640625 C 0.09375 -0.640625 0.125 -0.644531 0.15625 -0.65625 C 0.195312 -0.675781 0.234375 -0.695312 0.265625 -0.71875 L 0.328125 -0.71875 L 0.328125 -0.0625 L 0.5 -0.0625 L 0.5 0 Z M 0.046875 0 "/></g></g></g></g></g></g></svg>